<?xml version="1.0" encoding="UTF-8" standalone="no"?>
<!-- Created with Inkscape (http://www.inkscape.org/) -->

<svg
   xmlns:dc="http://purl.org/dc/elements/1.1/"
   xmlns:cc="http://creativecommons.org/ns#"
   xmlns:rdf="http://www.w3.org/1999/02/22-rdf-syntax-ns#"
   xmlns:svg="http://www.w3.org/2000/svg"
   xmlns="http://www.w3.org/2000/svg"
   xmlns:xlink="http://www.w3.org/1999/xlink"
   xmlns:sodipodi="http://sodipodi.sourceforge.net/DTD/sodipodi-0.dtd"
   xmlns:inkscape="http://www.inkscape.org/namespaces/inkscape"
   width="202.21088mm"
   height="41.886982mm"
   viewBox="0 0 716.49523 148.41844"
   id="svg2"
   version="1.1"
   inkscape:version="0.91 r13725"
   sodipodi:docname="name logo.svg">
  <sodipodi:namedview
     id="base"
     pagecolor="#ffffff"
     bordercolor="#666666"
     borderopacity="1.0"
     inkscape:pageopacity="0.0"
     inkscape:pageshadow="2"
     inkscape:zoom="1.4"
     inkscape:cx="154.91218"
     inkscape:cy="397.04263"
     inkscape:document-units="px"
     inkscape:current-layer="layer1"
     showgrid="false"
     inkscape:window-width="2560"
     inkscape:window-height="1377"
     inkscape:window-x="-8"
     inkscape:window-y="-8"
     inkscape:window-maximized="1"
     fit-margin-top="0"
     fit-margin-left="0"
     fit-margin-right="0"
     fit-margin-bottom="0" />
  <defs
     id="defs4">
    <pattern
       inkscape:collect="always"
       xlink:href="#pattern5866"
       id="pattern5926"
       patternTransform="matrix(1.3271995,0,0,1.5689057,-842.51353,-122.10868)" />
    <pattern
       inkscape:collect="always"
       xlink:href="#pattern5866"
       id="pattern5924"
       patternTransform="matrix(1.3271995,0,0,1.5689057,-835.17671,-122.10868)" />
    <pattern
       inkscape:collect="always"
       xlink:href="#pattern5072"
       id="pattern5866"
       patternTransform="matrix(1.3271995,0,0,1.5689057,-842.76107,-122.10868)" />
    <linearGradient
       inkscape:collect="always"
       id="linearGradient4913">
      <stop
         style="stop-color:#ffb380;stop-opacity:1;"
         offset="0"
         id="stop4915" />
      <stop
         style="stop-color:#ffb380;stop-opacity:0;"
         offset="1"
         id="stop4917" />
    </linearGradient>
    <filter
       inkscape:collect="always"
       style="color-interpolation-filters:sRGB"
       id="filter4907"
       x="-0.054117385"
       width="1.1082348"
       y="-1.1092681"
       height="3.2185361">
      <feGaussianBlur
         inkscape:collect="always"
         stdDeviation="34.611388"
         id="feGaussianBlur4909" />
    </filter>
    <linearGradient
       inkscape:collect="always"
       xlink:href="#linearGradient4913"
       id="linearGradient4919"
       x1="391.35715"
       y1="202.00505"
       x2="391.35715"
       y2="215.57648"
       gradientUnits="userSpaceOnUse" />
    <filter
       inkscape:collect="always"
       style="color-interpolation-filters:sRGB"
       id="filter4977"
       x="-0.031713966"
       width="1.0634279"
       y="-0.87116331"
       height="2.7423265">
      <feGaussianBlur
         inkscape:collect="always"
         stdDeviation="12.704465"
         id="feGaussianBlur4979" />
    </filter>
    <pattern
       patternUnits="userSpaceOnUse"
       width="1701.0818"
       height="241.01947"
       patternTransform="translate(-451.27813,97.718959)"
       id="pattern5072">
      <g
         id="g4981"
         transform="translate(451.27813,-97.718981)">
        <rect
           style="opacity:0.722;fill:url(#linearGradient4919);fill-opacity:1;stroke:#ffb380;stroke-width:3;stroke-linecap:butt;stroke-linejoin:miter;stroke-miterlimit:4;stroke-dasharray:none;stroke-dashoffset:0;stroke-opacity:1;filter:url(#filter4977)"
           id="rect4911"
           width="961.42859"
           height="35"
           x="-125.71429"
           y="181.6479" />
        <g
           id="g4767"
           style="filter:url(#filter4907)">
          <path
             style="opacity:1;fill:#ff7f2a;fill-opacity:1;stroke:#ffb380;stroke-width:2.02567291;stroke-linecap:butt;stroke-linejoin:miter;stroke-miterlimit:4;stroke-dasharray:none;stroke-dashoffset:0;stroke-opacity:1"
             d="m 1166.7364,255.67112 c 0,0 -495.50024,-72.8645 -495.50024,-72.8645"
             id="path4769"
             inkscape:connector-curvature="0" />
          <path
             style="opacity:1;fill:#ff7f2a;fill-opacity:1;stroke:#ffb380;stroke-width:2.02567291;stroke-linecap:butt;stroke-linejoin:miter;stroke-miterlimit:4;stroke-dasharray:none;stroke-dashoffset:0;stroke-opacity:1"
             d="m 1070.8022,255.54485 c 0,0 -433.56271,-72.8645 -433.56271,-72.8645"
             id="path4771"
             inkscape:connector-curvature="0" />
          <path
             style="opacity:1;fill:#ff7f2a;fill-opacity:1;stroke:#ffb380;stroke-width:2.02567291;stroke-linecap:butt;stroke-linejoin:miter;stroke-miterlimit:4;stroke-dasharray:none;stroke-dashoffset:0;stroke-opacity:1"
             d="m 974.868,255.41858 c 0,0 -371.62518,-72.8645 -371.62518,-72.8645"
             id="path4773"
             inkscape:connector-curvature="0" />
          <path
             style="opacity:1;fill:#ff7f2a;fill-opacity:1;stroke:#ffb380;stroke-width:2.02567291;stroke-linecap:butt;stroke-linejoin:miter;stroke-miterlimit:4;stroke-dasharray:none;stroke-dashoffset:0;stroke-opacity:1"
             d="m 878.9338,255.29231 c 0,0 -309.68765,-72.8645 -309.68765,-72.8645"
             id="path4775"
             inkscape:connector-curvature="0" />
          <path
             style="opacity:1;fill:#ff7f2a;fill-opacity:1;stroke:#ffb380;stroke-width:2.02567291;stroke-linecap:butt;stroke-linejoin:miter;stroke-miterlimit:4;stroke-dasharray:none;stroke-dashoffset:0;stroke-opacity:1"
             d="m 782.9996,255.16604 c 0,0 -247.75012,-72.8645 -247.75012,-72.8645"
             id="path4777"
             inkscape:connector-curvature="0" />
          <path
             style="opacity:1;fill:#ff7f2a;fill-opacity:1;stroke:#ffb380;stroke-width:2.02567291;stroke-linecap:butt;stroke-linejoin:miter;stroke-miterlimit:4;stroke-dasharray:none;stroke-dashoffset:0;stroke-opacity:1"
             d="m 687.0654,255.03977 c 0,0 -185.81259,-72.8645 -185.81259,-72.8645"
             id="path4779"
             inkscape:connector-curvature="0" />
          <path
             style="opacity:1;fill:#ff7f2a;fill-opacity:1;stroke:#ffb380;stroke-width:2.02567291;stroke-linecap:butt;stroke-linejoin:miter;stroke-miterlimit:4;stroke-dasharray:none;stroke-dashoffset:0;stroke-opacity:1"
             d="m 591.1312,254.9135 c 0,0 -123.87506,-72.8645 -123.87506,-72.8645"
             id="path4781"
             inkscape:connector-curvature="0" />
          <path
             style="opacity:1;fill:#ff7f2a;fill-opacity:1;stroke:#ffb380;stroke-width:2.02567291;stroke-linecap:butt;stroke-linejoin:miter;stroke-miterlimit:4;stroke-dasharray:none;stroke-dashoffset:0;stroke-opacity:1"
             d="m 495.197,254.78723 c 0,0 -61.93753,-72.8645 -61.93753,-72.8645"
             id="path4783"
             inkscape:connector-curvature="0" />
          <path
             style="opacity:1;fill:#ff7f2a;fill-opacity:1;stroke:#ffb380;stroke-width:2.02567291;stroke-linecap:butt;stroke-linejoin:miter;stroke-miterlimit:4;stroke-dasharray:none;stroke-dashoffset:0;stroke-opacity:1"
             d="m 399.2628,254.66096 c 0,0 -1e-5,-72.8645 -1e-5,-72.8645"
             id="path4785"
             inkscape:connector-curvature="0" />
          <path
             style="opacity:1;fill:#ff7f2a;fill-opacity:1;stroke:#ffb380;stroke-width:2.02567291;stroke-linecap:butt;stroke-linejoin:miter;stroke-miterlimit:4;stroke-dasharray:none;stroke-dashoffset:0;stroke-opacity:1"
             d="m 303.3286,254.5347 c 0,0 61.93752,-72.8645 61.93752,-72.8645"
             id="path4787"
             inkscape:connector-curvature="0" />
          <path
             style="opacity:1;fill:#ff7f2a;fill-opacity:1;stroke:#ffb380;stroke-width:2.02567291;stroke-linecap:butt;stroke-linejoin:miter;stroke-miterlimit:4;stroke-dasharray:none;stroke-dashoffset:0;stroke-opacity:1"
             d="m 207.3944,254.40843 c 0,0 123.87505,-72.8645 123.87505,-72.8645"
             id="path4789"
             inkscape:connector-curvature="0" />
          <path
             style="opacity:1;fill:#ff7f2a;fill-opacity:1;stroke:#ffb380;stroke-width:2.02567291;stroke-linecap:butt;stroke-linejoin:miter;stroke-miterlimit:4;stroke-dasharray:none;stroke-dashoffset:0;stroke-opacity:1"
             d="m 111.4602,254.28216 c 0,0 185.81258,-72.8645 185.81258,-72.8645"
             id="path4791"
             inkscape:connector-curvature="0" />
          <path
             style="opacity:1;fill:#ff7f2a;fill-opacity:1;stroke:#ffb380;stroke-width:2.02567291;stroke-linecap:butt;stroke-linejoin:miter;stroke-miterlimit:4;stroke-dasharray:none;stroke-dashoffset:0;stroke-opacity:1"
             d="m 15.526,254.15589 c 0,0 247.75011,-72.8645 247.75011,-72.8645"
             id="path4793"
             inkscape:connector-curvature="0" />
          <path
             style="opacity:1;fill:#ff7f2a;fill-opacity:1;stroke:#ffb380;stroke-width:2.02567291;stroke-linecap:butt;stroke-linejoin:miter;stroke-miterlimit:4;stroke-dasharray:none;stroke-dashoffset:0;stroke-opacity:1"
             d="m -80.4082,254.02962 c 0,0 309.68764,-72.8645 309.68764,-72.8645"
             id="path4795"
             inkscape:connector-curvature="0" />
          <path
             style="opacity:1;fill:#ff7f2a;fill-opacity:1;stroke:#ffb380;stroke-width:2.02567291;stroke-linecap:butt;stroke-linejoin:miter;stroke-miterlimit:4;stroke-dasharray:none;stroke-dashoffset:0;stroke-opacity:1"
             d="m -176.3424,253.90335 c 0,0 371.62517,-72.8645 371.62517,-72.8645"
             id="path4797"
             inkscape:connector-curvature="0" />
          <path
             style="opacity:1;fill:#ff7f2a;fill-opacity:1;stroke:#ffb380;stroke-width:2.02567291;stroke-linecap:butt;stroke-linejoin:miter;stroke-miterlimit:4;stroke-dasharray:none;stroke-dashoffset:0;stroke-opacity:1"
             d="m -272.2766,253.77708 c 0,0 433.5627,-72.8645 433.5627,-72.8645"
             id="path4799"
             inkscape:connector-curvature="0" />
          <path
             style="opacity:1;fill:#ff7f2a;fill-opacity:1;stroke:#ffb380;stroke-width:2.02567291;stroke-linecap:butt;stroke-linejoin:miter;stroke-miterlimit:4;stroke-dasharray:none;stroke-dashoffset:0;stroke-opacity:1"
             d="m -368.2108,253.65081 c 0,0 495.50023,-72.8645 495.50023,-72.8645"
             id="path4801"
             inkscape:connector-curvature="0" />
        </g>
        <flowRoot
           xml:space="preserve"
           id="flowRoot4136"
           style="font-style:normal;font-variant:normal;font-weight:normal;font-stretch:normal;font-size:35px;line-height:125%;font-family:'Gothic Mother';-inkscape-font-specification:'Gothic Mother, Normal';text-align:start;letter-spacing:0px;word-spacing:0px;writing-mode:lr-tb;text-anchor:start;fill:#000000;fill-opacity:1;stroke:none;stroke-width:1px;stroke-linecap:butt;stroke-linejoin:miter;stroke-opacity:1"><flowRegion
             id="flowRegion4138"><rect
               id="rect4140"
               width="680.84283"
               height="327.28943"
               x="88.893425"
               y="252.3214" /></flowRegion><flowPara
             id="flowPara4142" /></flowRoot>        <g
           style="stroke-width:1.29999995;stroke-miterlimit:4;stroke-dasharray:none"
           id="g4402">
          <path
             style="opacity:1;fill:#ff7f2a;fill-opacity:1;stroke:#ffaa80;stroke-width:1.29999995;stroke-linecap:butt;stroke-linejoin:miter;stroke-miterlimit:4;stroke-dasharray:none;stroke-dashoffset:0;stroke-opacity:1"
             d="m -359.38132,182.3622 c 1462.85712,0 1462.85712,0 1462.85712,0"
             id="path4156"
             inkscape:connector-curvature="0" />
          <path
             inkscape:connector-curvature="0"
             id="path4158"
             d="m -359.38132,256.3622 c 1462.85712,0 1462.85712,0 1462.85712,0"
             style="opacity:1;fill:#ff7f2a;fill-opacity:1;stroke:#ffaa80;stroke-width:1.29999995;stroke-linecap:butt;stroke-linejoin:miter;stroke-miterlimit:4;stroke-dasharray:none;stroke-dashoffset:0;stroke-opacity:1" />
          <g
             id="g4350"
             style="fill:#ff7f2a;stroke:#ffaa80;stroke-width:1.29999995;stroke-miterlimit:4;stroke-dasharray:none;stroke-opacity:1">
            <path
               id="path4352"
               d="m -359.38132,182.3622 c 1462.85712,0 1462.85712,0 1462.85712,0"
               style="opacity:1;fill:#ff7f2a;fill-opacity:1;stroke:#ffaa80;stroke-width:1.29999995;stroke-linecap:butt;stroke-linejoin:miter;stroke-miterlimit:4;stroke-dasharray:none;stroke-dashoffset:0;stroke-opacity:1"
               inkscape:connector-curvature="0" />
            <path
               id="path4354"
               d="m -359.38132,182.50728 c 1462.85712,0 1462.85712,0 1462.85712,0"
               style="opacity:1;fill:#ff7f2a;fill-opacity:1;stroke:#ffaa80;stroke-width:1.29999995;stroke-linecap:butt;stroke-linejoin:miter;stroke-miterlimit:4;stroke-dasharray:none;stroke-dashoffset:0;stroke-opacity:1"
               inkscape:connector-curvature="0" />
            <path
               id="path4356"
               d="m -359.38132,183.24181 c 1462.85712,0 1462.85712,0 1462.85712,0"
               style="opacity:1;fill:#ff7f2a;fill-opacity:1;stroke:#ffaa80;stroke-width:1.29999995;stroke-linecap:butt;stroke-linejoin:miter;stroke-miterlimit:4;stroke-dasharray:none;stroke-dashoffset:0;stroke-opacity:1"
               inkscape:connector-curvature="0" />
            <path
               id="path4358"
               d="m -359.38132,184.88641 c 1462.85712,0 1462.85712,0 1462.85712,0"
               style="opacity:1;fill:#ff7f2a;fill-opacity:1;stroke:#ffaa80;stroke-width:1.29999995;stroke-linecap:butt;stroke-linejoin:miter;stroke-miterlimit:4;stroke-dasharray:none;stroke-dashoffset:0;stroke-opacity:1"
               inkscape:connector-curvature="0" />
            <path
               id="path4360"
               d="m -359.38132,187.69514 c 1462.85712,0 1462.85712,0 1462.85712,0"
               style="opacity:1;fill:#ff7f2a;fill-opacity:1;stroke:#ffaa80;stroke-width:1.29999995;stroke-linecap:butt;stroke-linejoin:miter;stroke-miterlimit:4;stroke-dasharray:none;stroke-dashoffset:0;stroke-opacity:1"
               inkscape:connector-curvature="0" />
            <path
               id="path4362"
               d="m -359.38132,191.88869 c 1462.85712,0 1462.85712,0 1462.85712,0"
               style="opacity:1;fill:#ff7f2a;fill-opacity:1;stroke:#ffaa80;stroke-width:1.29999995;stroke-linecap:butt;stroke-linejoin:miter;stroke-miterlimit:4;stroke-dasharray:none;stroke-dashoffset:0;stroke-opacity:1"
               inkscape:connector-curvature="0" />
            <path
               id="path4364"
               d="m -359.38132,197.66617 c 1462.85712,0 1462.85712,0 1462.85712,0"
               style="opacity:1;fill:#ff7f2a;fill-opacity:1;stroke:#ffaa80;stroke-width:1.29999995;stroke-linecap:butt;stroke-linejoin:miter;stroke-miterlimit:4;stroke-dasharray:none;stroke-dashoffset:0;stroke-opacity:1"
               inkscape:connector-curvature="0" />
            <path
               id="path4366"
               d="m -359.38132,205.21112 c 1462.85712,0 1462.85712,0 1462.85712,0"
               style="opacity:1;fill:#ff7f2a;fill-opacity:1;stroke:#ffaa80;stroke-width:1.29999995;stroke-linecap:butt;stroke-linejoin:miter;stroke-miterlimit:4;stroke-dasharray:none;stroke-dashoffset:0;stroke-opacity:1"
               inkscape:connector-curvature="0" />
            <path
               id="path4368"
               d="m -359.38132,214.6951 c 1462.85712,0 1462.85712,0 1462.85712,0"
               style="opacity:1;fill:#ff7f2a;fill-opacity:1;stroke:#ffaa80;stroke-width:1.29999995;stroke-linecap:butt;stroke-linejoin:miter;stroke-miterlimit:4;stroke-dasharray:none;stroke-dashoffset:0;stroke-opacity:1"
               inkscape:connector-curvature="0" />
            <path
               id="path4370"
               d="m -359.38132,226.28007 c 1462.85712,0 1462.85712,0 1462.85712,0"
               style="opacity:1;fill:#ff7f2a;fill-opacity:1;stroke:#ffaa80;stroke-width:1.29999995;stroke-linecap:butt;stroke-linejoin:miter;stroke-miterlimit:4;stroke-dasharray:none;stroke-dashoffset:0;stroke-opacity:1"
               inkscape:connector-curvature="0" />
            <path
               id="path4372"
               d="m -359.38132,240.12001 c 1462.85712,0 1462.85712,0 1462.85712,0"
               style="opacity:1;fill:#ff7f2a;fill-opacity:1;stroke:#ffaa80;stroke-width:1.29999995;stroke-linecap:butt;stroke-linejoin:miter;stroke-miterlimit:4;stroke-dasharray:none;stroke-dashoffset:0;stroke-opacity:1"
               inkscape:connector-curvature="0" />
            <path
               id="path4374"
               d="m -359.38132,256.3622 c 1462.85712,0 1462.85712,0 1462.85712,0"
               style="opacity:1;fill:#ff7f2a;fill-opacity:1;stroke:#ffaa80;stroke-width:1.29999995;stroke-linecap:butt;stroke-linejoin:miter;stroke-miterlimit:4;stroke-dasharray:none;stroke-dashoffset:0;stroke-opacity:1"
               inkscape:connector-curvature="0" />
          </g>
        </g>
        <path
           style="opacity:1;fill:#ff7f2a;fill-opacity:1;stroke:#ffb380;stroke-width:2.02567291;stroke-linecap:butt;stroke-linejoin:miter;stroke-miterlimit:4;stroke-dasharray:none;stroke-dashoffset:0;stroke-opacity:1"
           d="m -368.2108,253.65081 495.50023,-72.8645"
           id="path4421"
           inkscape:connector-curvature="0" />
        <path
           inkscape:connector-curvature="0"
           id="path4651"
           d="M 1166.7364,255.67112 671.23616,182.80662"
           style="opacity:1;fill:#ff7f2a;fill-opacity:1;stroke:#ffb380;stroke-width:2.02567291;stroke-linecap:butt;stroke-linejoin:miter;stroke-miterlimit:4;stroke-dasharray:none;stroke-dashoffset:0;stroke-opacity:1" />
        <g
           id="g4684">
          <path
             id="path4686"
             d="m 1166.7364,255.67112 c 0,0 -495.50024,-72.8645 -495.50024,-72.8645"
             style="opacity:1;fill:#ff7f2a;fill-opacity:1;stroke:#ffb380;stroke-width:2.02567291;stroke-linecap:butt;stroke-linejoin:miter;stroke-miterlimit:4;stroke-dasharray:none;stroke-dashoffset:0;stroke-opacity:1"
             inkscape:connector-curvature="0" />
          <path
             id="path4688"
             d="m 1070.8022,255.54485 c 0,0 -433.56271,-72.8645 -433.56271,-72.8645"
             style="opacity:1;fill:#ff7f2a;fill-opacity:1;stroke:#ffb380;stroke-width:2.02567291;stroke-linecap:butt;stroke-linejoin:miter;stroke-miterlimit:4;stroke-dasharray:none;stroke-dashoffset:0;stroke-opacity:1"
             inkscape:connector-curvature="0" />
          <path
             id="path4690"
             d="m 974.868,255.41858 c 0,0 -371.62518,-72.8645 -371.62518,-72.8645"
             style="opacity:1;fill:#ff7f2a;fill-opacity:1;stroke:#ffb380;stroke-width:2.02567291;stroke-linecap:butt;stroke-linejoin:miter;stroke-miterlimit:4;stroke-dasharray:none;stroke-dashoffset:0;stroke-opacity:1"
             inkscape:connector-curvature="0" />
          <path
             id="path4692"
             d="m 878.9338,255.29231 c 0,0 -309.68765,-72.8645 -309.68765,-72.8645"
             style="opacity:1;fill:#ff7f2a;fill-opacity:1;stroke:#ffb380;stroke-width:2.02567291;stroke-linecap:butt;stroke-linejoin:miter;stroke-miterlimit:4;stroke-dasharray:none;stroke-dashoffset:0;stroke-opacity:1"
             inkscape:connector-curvature="0" />
          <path
             id="path4694"
             d="m 782.9996,255.16604 c 0,0 -247.75012,-72.8645 -247.75012,-72.8645"
             style="opacity:1;fill:#ff7f2a;fill-opacity:1;stroke:#ffb380;stroke-width:2.02567291;stroke-linecap:butt;stroke-linejoin:miter;stroke-miterlimit:4;stroke-dasharray:none;stroke-dashoffset:0;stroke-opacity:1"
             inkscape:connector-curvature="0" />
          <path
             id="path4696"
             d="m 687.0654,255.03977 c 0,0 -185.81259,-72.8645 -185.81259,-72.8645"
             style="opacity:1;fill:#ff7f2a;fill-opacity:1;stroke:#ffb380;stroke-width:2.02567291;stroke-linecap:butt;stroke-linejoin:miter;stroke-miterlimit:4;stroke-dasharray:none;stroke-dashoffset:0;stroke-opacity:1"
             inkscape:connector-curvature="0" />
          <path
             id="path4698"
             d="m 591.1312,254.9135 c 0,0 -123.87506,-72.8645 -123.87506,-72.8645"
             style="opacity:1;fill:#ff7f2a;fill-opacity:1;stroke:#ffb380;stroke-width:2.02567291;stroke-linecap:butt;stroke-linejoin:miter;stroke-miterlimit:4;stroke-dasharray:none;stroke-dashoffset:0;stroke-opacity:1"
             inkscape:connector-curvature="0" />
          <path
             id="path4700"
             d="m 495.197,254.78723 c 0,0 -61.93753,-72.8645 -61.93753,-72.8645"
             style="opacity:1;fill:#ff7f2a;fill-opacity:1;stroke:#ffb380;stroke-width:2.02567291;stroke-linecap:butt;stroke-linejoin:miter;stroke-miterlimit:4;stroke-dasharray:none;stroke-dashoffset:0;stroke-opacity:1"
             inkscape:connector-curvature="0" />
          <path
             id="path4702"
             d="m 399.2628,254.66096 c 0,0 -1e-5,-72.8645 -1e-5,-72.8645"
             style="opacity:1;fill:#ff7f2a;fill-opacity:1;stroke:#ffb380;stroke-width:2.02567291;stroke-linecap:butt;stroke-linejoin:miter;stroke-miterlimit:4;stroke-dasharray:none;stroke-dashoffset:0;stroke-opacity:1"
             inkscape:connector-curvature="0" />
          <path
             id="path4704"
             d="m 303.3286,254.5347 c 0,0 61.93752,-72.8645 61.93752,-72.8645"
             style="opacity:1;fill:#ff7f2a;fill-opacity:1;stroke:#ffb380;stroke-width:2.02567291;stroke-linecap:butt;stroke-linejoin:miter;stroke-miterlimit:4;stroke-dasharray:none;stroke-dashoffset:0;stroke-opacity:1"
             inkscape:connector-curvature="0" />
          <path
             id="path4706"
             d="m 207.3944,254.40843 c 0,0 123.87505,-72.8645 123.87505,-72.8645"
             style="opacity:1;fill:#ff7f2a;fill-opacity:1;stroke:#ffb380;stroke-width:2.02567291;stroke-linecap:butt;stroke-linejoin:miter;stroke-miterlimit:4;stroke-dasharray:none;stroke-dashoffset:0;stroke-opacity:1"
             inkscape:connector-curvature="0" />
          <path
             id="path4708"
             d="m 111.4602,254.28216 c 0,0 185.81258,-72.8645 185.81258,-72.8645"
             style="opacity:1;fill:#ff7f2a;fill-opacity:1;stroke:#ffb380;stroke-width:2.02567291;stroke-linecap:butt;stroke-linejoin:miter;stroke-miterlimit:4;stroke-dasharray:none;stroke-dashoffset:0;stroke-opacity:1"
             inkscape:connector-curvature="0" />
          <path
             id="path4710"
             d="m 15.526,254.15589 c 0,0 247.75011,-72.8645 247.75011,-72.8645"
             style="opacity:1;fill:#ff7f2a;fill-opacity:1;stroke:#ffb380;stroke-width:2.02567291;stroke-linecap:butt;stroke-linejoin:miter;stroke-miterlimit:4;stroke-dasharray:none;stroke-dashoffset:0;stroke-opacity:1"
             inkscape:connector-curvature="0" />
          <path
             id="path4712"
             d="m -80.4082,254.02962 c 0,0 309.68764,-72.8645 309.68764,-72.8645"
             style="opacity:1;fill:#ff7f2a;fill-opacity:1;stroke:#ffb380;stroke-width:2.02567291;stroke-linecap:butt;stroke-linejoin:miter;stroke-miterlimit:4;stroke-dasharray:none;stroke-dashoffset:0;stroke-opacity:1"
             inkscape:connector-curvature="0" />
          <path
             id="path4714"
             d="m -176.3424,253.90335 c 0,0 371.62517,-72.8645 371.62517,-72.8645"
             style="opacity:1;fill:#ff7f2a;fill-opacity:1;stroke:#ffb380;stroke-width:2.02567291;stroke-linecap:butt;stroke-linejoin:miter;stroke-miterlimit:4;stroke-dasharray:none;stroke-dashoffset:0;stroke-opacity:1"
             inkscape:connector-curvature="0" />
          <path
             id="path4716"
             d="m -272.2766,253.77708 c 0,0 433.5627,-72.8645 433.5627,-72.8645"
             style="opacity:1;fill:#ff7f2a;fill-opacity:1;stroke:#ffb380;stroke-width:2.02567291;stroke-linecap:butt;stroke-linejoin:miter;stroke-miterlimit:4;stroke-dasharray:none;stroke-dashoffset:0;stroke-opacity:1"
             inkscape:connector-curvature="0" />
          <path
             id="path4718"
             d="m -368.2108,253.65081 c 0,0 495.50023,-72.8645 495.50023,-72.8645"
             style="opacity:1;fill:#ff7f2a;fill-opacity:1;stroke:#ffb380;stroke-width:2.02567291;stroke-linecap:butt;stroke-linejoin:miter;stroke-miterlimit:4;stroke-dasharray:none;stroke-dashoffset:0;stroke-opacity:1"
             inkscape:connector-curvature="0" />
        </g>
      </g>
    </pattern>
  </defs>
  <metadata
     id="metadata7">
    <rdf:RDF>
      <cc:Work
         rdf:about="">
        <dc:format>image/svg+xml</dc:format>
        <dc:type
           rdf:resource="http://purl.org/dc/dcmitype/StillImage" />
        <dc:title></dc:title>
      </cc:Work>
    </rdf:RDF>
  </metadata>
  <g
     inkscape:label="Layer 1"
     inkscape:groupmode="layer"
     id="layer1"
     transform="translate(-0.90537954,-647.96065)">
    <g
       transform="matrix(0.91162564,0,0,1.0969415,-10,285.71429)"
       style="font-style:normal;font-variant:normal;font-weight:bold;font-stretch:normal;font-size:170.534729px;line-height:125%;font-family:'Ice kingdom';-inkscape-font-specification:'Ice kingdom, Bold';text-align:start;letter-spacing:0px;word-spacing:0px;writing-mode:lr-tb;text-anchor:start;fill:url(#pattern5866);fill-opacity:1;stroke:#070606;stroke-width:5.29669476;stroke-linecap:butt;stroke-linejoin:miter;stroke-miterlimit:4;stroke-dasharray:none;stroke-opacity:1"
       id="text5852">
      <path
         d="m 23.318359,338.78125 c -0.773951,0.81947 1.173142,1.49889 1.469763,2.40312 1.604034,1.64771 2.435553,4.05109 4.21969,5.44454 1.716585,1.04178 2.214102,3.49239 3.300716,5.17067 1.128783,1.54535 0.07511,0.97537 -0.740169,1.01878 2.116399,2.16953 4.364177,4.20787 5.817171,6.92222 3.400389,5.40188 7.426624,10.34803 11.149186,15.51771 1.690939,2.28868 2.993891,5.01458 4.277379,7.41308 1.691152,0.46397 4.165637,0.5112 4.183999,2.84035 0.416051,2.64348 2.518843,4.65259 3.887482,6.8717 1.550728,1.67115 4.26641,4.06605 2.381513,6.46038 -3.018993,4.41949 -7.12272,8.10431 -9.593214,12.88081 0.144235,1.13052 1.710585,3.12895 -0.03711,3.79492 -2.611902,-1.01446 -3.642982,2.19246 -4.522265,3.97649 -1.011701,2.53313 -2.645229,4.68236 -4.903126,6.22199 -3.468711,2.66923 -4.717009,7.0802 -7.198023,10.54453 -2.862515,5.0589 -7.14968,9.12201 -11.45101,12.9536 -2.731636,1.57635 -5.037798,3.74291 -7.492516,5.69746 -1.304598,0.76551 -2.435412,2.23205 -2.653764,3.65476 2.331638,-1.33652 5.000855,-1.50197 7.635443,-1.33203 1.969402,-0.12582 4.439563,0.24913 6.102839,-0.18281 -0.896115,-1.87143 1.395451,-0.22344 2.268722,-0.10849 1.935105,1.08322 3.310896,-1.55218 5.32618,-0.95447 1.479126,0.0661 3.241532,-0.30017 4.112129,1.11686 1.36392,0.62058 1.871382,-1.41186 3.346689,-1.06399 2.554002,-0.38576 5.129998,0.17205 7.647452,0.1011 0.677724,1.2587 2.24411,1.34438 3.398437,0.92774 0.797845,-3.94203 -1.691968,-7.98158 0.192887,-11.80087 1.85377,-4.65809 4.829913,-8.79643 7.157755,-13.23404 2.886322,-4.80388 6.121411,-9.58571 10.266546,-13.35377 0.917566,-0.48045 2.252947,-2.05197 2.745061,-0.39671 3.667334,4.9515 7.767475,9.64265 10.337266,15.29875 1.617479,3.10935 3.304274,6.17898 5.352178,8.99595 0.82657,3.80028 2.573383,7.95982 0.983463,11.81295 -0.387046,0.84911 -1.658214,2.10664 -0.748879,2.83771 2.901514,-0.26289 5.79409,-0.0266 8.496921,1.10911 3.00233,0.7068 6.19485,0.31663 9.2168,0.0864 -0.0344,-0.65773 0.12976,-1.5932 1.21094,-1.08593 0.77348,0.72587 1.54324,1.38968 2.76509,1.24264 1.22453,-0.0218 3.47761,0.62657 3.59038,-1.17624 2.59691,-0.27246 5.71244,-0.86056 7.80664,1.09766 3.59793,0.33816 7.35451,-0.44661 10.88453,0.29576 1.25568,1.18439 3.61582,1.28218 4.97485,0.93276 -1.35888,0.15317 -1.44965,-1.96684 -2.49805,-2.66407 -3.14246,-2.4242 -6.63253,-4.43462 -9.06813,-7.66495 -5.65087,-7.98395 -10.45591,-16.55916 -15.58086,-24.88345 -1.77758,-2.28005 -3.82113,-4.41896 -4.40147,-7.36437 -0.47612,-2.04142 -1.16595,-4.0922 -3.13966,-5.15663 -0.79407,-0.9404 -1.74385,-1.58292 -3.00035,-1.67276 -1.8966,-1.73041 1.09979,-4.37088 -0.84081,-6.20543 -2.445216,-3.8074 -4.972573,-7.59466 -7.797268,-11.12335 -0.791391,-0.89935 -2.31154,-1.68155 -1.202389,-2.99084 1.513461,-2.55824 3.736865,-4.83699 4.150075,-7.85619 1.840537,-3.32498 5.516552,-5.29874 7.015442,-8.9045 2.91518,-5.28917 7.83233,-9.16269 10.31317,-14.72527 1.07456,-2.27037 2.24865,-4.44809 4.25529,-6.02954 3.98933,-4.17466 7.9017,-8.71664 13.05385,-11.47473 0.93633,-0.35982 2.40026,-0.71808 1.74506,-2.02416 -4.29011,-0.12321 -8.58579,-0.70857 -12.84005,0.0151 -2.8903,0.24182 -5.91761,-0.17845 -8.72635,0.23494 -0.46641,1.66429 -3.37709,1.58454 -3.9668,0.20508 -1.36879,-1.00935 -3.44115,-0.17112 -5.08303,-0.52556 -3.058316,-0.11579 -6.15352,-0.40884 -9.186504,0.15446 1.062105,2.74038 4.33917,4.71786 3.703552,7.88893 0.451734,1.80559 -0.542294,3.20058 -1.205505,4.74779 -0.480899,1.54175 -0.294557,3.50669 -0.163379,4.84764 -1.154201,0.34892 -2.765862,-0.52069 -3.453971,1.00641 -3.676047,3.87574 -7.170236,8.01904 -9.250711,12.99504 -0.710455,1.14486 -1.395315,2.94477 -2.479595,3.48099 -1.398945,-0.40992 -2.16851,-2.08754 -3.011719,-3.38672 -1.375525,-2.52351 -1.321759,-5.8403 -3.457031,-7.93164 -2.648219,-0.967 -3.098138,-4.33556 -4.77878,-6.34274 -1.477841,-2.70829 -4.432499,-4.45848 -4.874304,-7.71406 -1.577245,-2.39687 -0.66352,-5.33894 -0.714104,-8.0096 -0.875626,-0.92623 2.117188,-1.27619 0.675451,-1.67202 -3.979165,0.0971 -8.053067,-0.4861 -11.970373,0.30678 -0.315921,0.61637 -2.040057,1.62418 -2.020588,0.73851 1.466097,-0.94998 -0.415661,-1.06865 -1.241584,-1.05045 -4.677944,-0.21673 -9.590697,-0.40425 -14.128453,0.0951 1.56989,0.82403 0.0746,1.94415 -0.769233,0.73318 -1.691761,-1.9879 -4.527597,-0.60307 -6.759539,-0.86774 -1.479283,0.35144 -3.12984,-0.61152 -4.467322,-0.16231 z"
         style="fill:url(#pattern5866);stroke-width:5.29669476;stroke-miterlimit:4;stroke-dasharray:none"
         id="path5892"
         inkscape:connector-curvature="0" />
      <path
         d="m 149.43555,338.57812 c -3.75107,0.54282 -7.83042,-0.434 -11.53321,0.5 2.00236,2.47467 4.57753,4.57392 5.53711,7.70313 1.52962,2.07188 1.3196,5.02084 2.0956,7.49284 0.958,3.1643 0.98638,6.56839 0.0623,9.71395 0.71929,2.57799 0.79187,5.19474 0.29909,7.81469 1.10175,1.41685 0.20128,3.56806 0.43816,5.27407 0.13756,1.16092 -0.45086,2.93925 0.0443,3.72984 1.54088,0.49831 0.42819,2.81057 0.76562,4.07031 1.00891,2.39507 -2.19041,4.46607 -1.41601,6.91016 -0.0631,4.10211 0.29898,8.20029 -0.13309,12.27233 0.48944,2.83694 -0.69268,5.86385 0.83171,8.54081 0.52156,1.87627 0.81718,4.24704 0.29001,5.96154 -2.0066,-0.0609 -0.80174,2.30999 -1.05489,3.57683 0.15846,4.7158 0.15774,9.48722 -0.63383,14.12372 0.98109,4.41914 0.92893,9.03711 -0.26742,13.40777 -0.21348,2.6021 -1.79833,4.68784 -2.82565,7.02223 -1.1684,2.02236 -2.8715,4.03852 -3.867,5.9561 3.57678,-0.18728 7.20685,-1.52129 10.62926,-1.6271 1.69013,0.73809 3.15296,-0.94252 4.90505,-0.74184 1.54339,-0.19435 3.31161,-0.97263 4.64505,-1.0501 2.4726,0.19592 5.191,-0.70015 7.58789,-0.60757 2.32426,0.32237 5.11658,-0.27233 7.62142,-0.30347 1.87088,-1.36872 4.07682,-1.05007 6.24609,-0.91602 4.86032,0.12944 9.50655,-0.23195 14.25977,0.0215 3.25945,0.4287 6.9981,0.12066 10.33434,0.3125 2.43435,0.0708 5.19481,-0.10067 7.42347,0.27148 1.55546,0.79421 3.43945,0.26342 5.0831,0.5151 1.50398,-0.0125 3.06141,0.16019 4.53409,-0.0366 0.018,-2.62738 -0.35194,-5.45123 0.30103,-7.95488 1.28859,-1.76491 0.30889,-4.19984 0.5847,-6.21564 0.14006,-1.10368 -1.18609,-1.84042 -0.66887,-3.11332 -0.1667,-1.38602 1.28808,-2.19143 1.32806,-3.69468 0.17386,-1.98329 1.8272,-4.23792 1.10235,-6.00195 -4.40942,1.97723 -8.57764,4.63597 -12.98828,6.57812 -1.66946,0.5783 -3.38464,-0.95637 -4.85626,0.3125 -3.60287,0.39773 -7.37046,0.33217 -11.0332,0.27149 -1.19324,-0.0266 -2.16276,-1.28906 -3.12334,-0.0509 -1.19827,1.06006 -2.40055,-0.42702 -3.78681,0.13492 -2.98704,0.34682 -6.06504,1.11824 -8.82813,0.83203 -1.86483,0.1421 -3.27455,-0.80875 -5.11138,-0.26952 -1.00419,-0.036 -2.91485,0.81189 -2.37497,-0.91127 -0.0319,-3.61751 0.16683,-7.34184 -0.008,-10.89342 -1.93212,-1.79039 -0.61373,-5.15071 1.16602,-6.57813 -0.11746,-3.81446 -0.64144,-7.66346 -1.03671,-11.40377 -0.90874,-1.56385 -1.00308,-3.22194 -0.62603,-4.98655 -0.002,-1.2548 0.22106,-2.28196 1.70841,-1.89319 2.14701,0.10737 4.56949,-0.50007 6.54546,0.0512 1.13418,1.36588 3.33201,0.19711 4.95279,0.4413 2.06145,-0.39328 4.61706,0.53686 6.1924,-1.19527 2.20598,0.83989 4.80634,-0.65007 6.86057,0.37221 0.97103,1.12468 2.92349,0.61118 4.21561,0.44029 2.77314,0.25763 5.32294,1.95628 7.99218,2.76953 -0.13068,-2.31552 -2.10532,-4.18837 -2.41211,-6.35937 1.58437,-1.31777 3.63674,-2.42641 5.49046,-3.05071 1.46606,1.37518 2.54204,-0.89113 3.98781,-1.11468 1.4379,-0.81385 3.36786,-1.34853 4.3147,-2.68617 -2.5199,-1.348 -4.93763,-3.13244 -7.56366,-4.16666 -1.95854,0.14329 -3.61923,-1.65602 -5.40679,-2.39081 -1.66425,-0.48729 0.11972,-2.29443 0.24995,-3.40849 0.29013,-0.95859 0.99734,-2.00469 1.08964,-2.88756 -2.98614,0.13864 -5.51469,2.18732 -8.29017,2.81025 -4.88155,-0.12021 -9.82841,-0.50572 -14.67373,-0.19211 -2.24703,0.56827 -4.48917,1.46361 -6.81108,0.79592 -1.91748,0.0523 -3.8664,-0.2467 -5.56306,-0.65301 -0.89555,-0.0289 -3.11015,1.13527 -2.51827,-0.58611 0.0851,-1.58765 0.78967,-3.48402 -0.86244,-4.48549 -0.67218,-0.7764 -0.43498,-2.53995 0.26543,-3.04317 1.61249,-0.21156 0.47656,-2.4707 0.8166,-3.66611 -0.1209,-1.8729 0.3945,-3.97251 -0.58203,-5.58406 0.0544,-2.33294 -0.0543,-4.76614 0.47852,-7.02111 3.24372,-0.64649 6.6807,0.12358 9.86133,-0.19922 3.58171,-0.85673 7.39826,-0.647 11.05859,-0.57422 0.28913,1.27932 2.22307,0.85123 3.1543,0.55078 1.26645,-0.76837 2.56504,1.49758 3.86642,0.27645 3.75885,-0.55923 7.65749,-0.35957 11.42459,-0.20223 1.78133,0.9892 4.05352,-0.77398 5.69469,0.87014 3.07658,1.67181 6.0745,3.73737 9.12758,5.29002 0.16752,-2.71293 -0.82151,-5.42844 -1.48479,-8.01121 -0.5624,-1.30232 -0.18332,-2.74343 0.34221,-3.91067 0.0854,-2.23394 0.72411,-4.69204 -0.31445,-6.70429 -0.14957,-2.20979 0.25601,-4.70012 0.082,-6.7293 -2.39494,0.10926 -4.94975,-0.3393 -7.24414,0.28125 -3.34609,0.47642 -7.2574,0.0267 -10.82216,0.14856 -2.38356,-0.0192 -4.71787,0.0594 -6.94382,0.32019 -5.94667,-0.0758 -11.91013,0.0832 -17.84144,0.1875 -3.23047,-1.62199 -6.91147,-0.69882 -10.39,-0.9375 -3.3549,0.50752 -7.00593,0.066 -10.45515,0.33175 -2.37615,0.0124 -5.07012,-0.6114 -7.59531,-0.33414 -1.24452,-0.018 -2.66737,-1.08745 -3.9404,0.0864 z"
         style="fill:url(#pattern5866);stroke-width:5.29669476;stroke-miterlimit:4;stroke-dasharray:none"
         id="path5894"
         inkscape:connector-curvature="0" />
      <path
         d="m 270.48973,337.83984 c -2.41008,0.13474 -4.64543,1.77561 -7.11058,0.84052 -3.01079,-0.59867 -6.08026,-0.63797 -9.06547,0.0369 -1.96969,-0.01 -4.03449,0.64401 -5.83372,-0.22309 -2.00826,-0.31746 -2.25691,2.65901 -4.33008,2.08203 -2.11862,0.15894 -4.24677,0.0376 -5.97461,-1.34765 -1.76958,-0.11665 -3.58765,0.11559 -5.29885,-0.38437 -2.68281,0.18144 -5.37755,-0.7327 -8.0449,-0.18204 0.28877,2.21848 2.74228,3.16563 3.6215,5.13951 1.19891,1.81748 2.96881,3.79056 2.13951,6.11691 0.0259,1.53904 1.57919,2.67617 1.6511,4.06389 -2.0959,0.72729 -0.44231,3.29327 -0.52539,4.83985 1.14578,7.8831 0.34011,15.87352 0.69141,23.80468 -0.94604,1.67016 0.44531,3.62963 0,5.45853 -0.81319,4.51735 0.31886,9.12516 0.50255,13.68372 0.36816,3.14492 0.27039,6.51452 -1.11842,9.34605 0.53607,0.99307 1.74397,1.72377 1.28188,3.1019 -0.17261,2.13368 0.85443,4.74652 -0.99804,6.31331 0.0589,1.03347 2.39762,1.59843 1.34895,2.93092 -1.1773,1.50515 -0.1541,3.55538 -0.52175,5.31316 -0.0462,3.86989 -0.15232,7.81739 -0.45416,11.70398 -0.28053,3.19498 0.54263,6.64574 -0.57434,9.80973 -0.63413,3.07717 -3.23732,5.12356 -5.37878,7.11409 2.33604,0.27893 4.85005,0.76312 7.15103,0.49015 1.58457,0.12905 3.21305,-0.56355 4.8392,-0.74015 1.41563,-0.18029 2.33211,1.45212 3.69532,0.60547 1.05079,-0.18736 2.06503,1.03548 3.12304,0.33789 1.65305,-0.4035 3.93878,0.49823 5.61017,-0.0655 1.13015,-1.57371 4.18231,-1.85399 4.99113,-0.0667 4.47199,-0.21032 8.59896,0.0201 13.14089,0.18888 -0.56742,-4.00741 -6.28922,-4.38223 -6.86802,-8.44025 -1.30446,-5.53609 -0.68222,-11.3259 -1.24016,-16.91014 -0.83041,-1.84107 -0.43839,-3.81095 -0.30783,-5.70429 -0.67742,-1.11099 -1.84162,-1.96001 -1.24415,-3.41797 -0.3808,-4.28266 0.3669,-8.51531 0.16797,-12.81234 0.11545,-1.7973 0.13268,-3.60422 -1.25145,-4.94065 -1.31503,-1.43654 -0.8916,-3.45828 0.16747,-4.83021 -0.0723,-2.83229 0.23009,-5.78827 -0.33203,-8.47537 -0.32517,-1.16815 0.85734,-2.01376 0.14648,-3.07229 -0.2201,-1.44213 -0.29441,-3.60157 0.041,-5.19336 1.02884,-0.50321 1.38665,-1.19476 1.18049,-2.37339 0.20045,-4.58968 -0.0358,-9.35485 0.51826,-13.82203 -2.05453,-1.65359 -1.08884,-4.33359 -1.30971,-6.61621 0.16652,-1.86108 -0.86989,-3.94234 0.0895,-5.6454 3.22001,0.0879 6.42384,-0.51656 9.65821,-0.25 0.78058,-0.32321 1.05575,-1.55589 2.26562,-1.07227 2.48446,0.19718 5.2705,0.24274 7.45495,1.35932 0.73186,1.77172 3.09223,1.26154 3.76177,3.1341 1.27434,2.05443 4.10175,3.63929 4.02547,6.28002 -0.46608,1.96077 1.62931,3.46082 2.06455,5.3363 1.45565,2.84481 1.4315,6.15806 0.10408,9.04185 -0.92642,2.64151 -1.80321,5.46045 -3.26238,7.79177 -3.47419,1.77504 -7.53225,0.44599 -11.26481,0.76953 -0.98375,-0.22058 -1.91335,0.48587 -2.16583,1.15727 -3.22506,-0.0827 -6.44406,-0.77889 -9.64358,-0.82328 0.90131,1.95872 2.06795,3.95484 3.11179,5.89639 1.35579,1.75336 1.84164,4.22303 3.71634,5.42783 -0.39998,2.16923 1.50988,3.63667 2.05273,5.65234 1.1541,1.08171 2.68256,1.64693 3.53457,3.12388 1.41731,1.39448 1.76564,3.28862 1.77012,5.16128 2.68173,3.91387 5.99063,7.43689 8.38086,11.54296 -0.57136,2.75008 2.45722,4.01409 3.83809,5.91529 1.20828,1.19163 2.29578,2.43371 2.32206,4.24292 3.32334,2.76518 5.76933,6.55702 9.75027,8.49831 2.85031,1.68132 5.38713,3.99633 7.83684,6.07395 2.16991,0.22709 4.56893,-0.6448 6.08002,1.36939 1.93957,1.56218 4.0026,3.06807 5.9774,4.54272 3.81794,0.46356 7.53068,2.20099 11.40821,2.08203 0.94125,-1.50079 2.57366,-0.29968 3.77902,-0.22809 7.63803,0.54493 15.31086,0.36125 22.94553,-0.0219 0.27548,-0.59578 -1.71661,-1.01675 -2.34928,-1.53328 -2.53682,-1.06196 -4.63294,-3.14899 -7.39871,-3.52922 -1.5557,-0.85444 -2.92086,-2.45222 -4.71617,-2.4532 -6.02523,-3.69832 -11.59659,-8.10963 -17.15059,-12.47264 -1.64359,-2.66913 -4.39311,-4.23044 -6.67649,-6.25571 -1.51922,-0.95301 -1.0741,-3.22942 -2.27352,-4.17032 -1.25942,-0.10004 -1.28805,-0.9231 -0.89807,-1.82703 -0.22106,-1.65433 -2.09036,-2.72305 -2.79102,-4.26055 -1.25116,-0.55145 -2.97692,-0.37176 -3.11153,-2.23687 -0.7001,-1.36927 -0.37847,-2.86629 -0.53766,-4.23569 -2.05094,-3.87057 -5.28631,-7.08412 -7.40346,-10.84456 -2.81928,-1.16061 -6.0339,-1.29683 -8.98861,-2.03562 -0.96291,0.006 -2.20197,2.41334 -2.3819,0.47485 -0.57539,-1.71576 -3.38376,-1.20198 -4.43036,-2.57523 3.28648,0.14494 6.79074,0.52022 9.93964,-0.78962 1.70546,-0.11259 3.77746,-0.45911 4.08725,-2.49018 0.30427,-1.12329 1.16158,-1.77834 2.2114,-0.9663 2.53491,-2.64993 5.83073,-4.84207 7.49414,-8.16015 -0.23219,-1.79897 -0.91331,-4.2676 1.38867,-4.99414 1.89644,-0.612 1.19229,-3.19537 1.80673,-4.7235 0.61598,-4.49454 1.88309,-9.09013 1.22502,-13.62688 -0.55454,-2.04782 -3.26697,-3.68583 -1.92238,-5.96603 -0.0204,-2.67616 -2.88235,-4.16223 -3.89269,-6.48044 -1.63546,-2.7465 -3.90598,-5.06138 -6.28729,-7.09548 -1.09133,-1.53538 -2.50526,-3.21509 -4.60629,-2.79739 -2.5918,-0.42225 -6.09899,0.13675 -7.44615,-2.69505 -2.01446,0.0909 -4.11365,-0.21364 -6.04451,0.41601 -3.13842,0.14901 -6.18291,-0.47729 -9.20407,-1.06587 -1.45729,-1.26703 -3.63117,-0.46762 -5.4604,-0.67241 z"
         style="fill:url(#pattern5926);stroke-width:5.29669476;stroke-miterlimit:4;stroke-dasharray:none"
         id="path5896"
         inkscape:connector-curvature="0" />
      <path
         d="m 368.04334,332.93945 c -2.06295,1.4449 -2.04288,4.45568 -3.19647,6.56206 -0.41614,1.8567 -1.81285,3.09699 -2.86212,4.57271 0.12087,1.46197 0.7988,3.31157 0.57047,4.53056 -1.4061,0.28126 -3.64336,0.40771 -3.20328,2.4753 -0.0181,1.16187 -0.86163,2.34671 -0.11524,3.32031 0.14188,1.50065 -1.49296,0.60868 -1.81054,1.90039 -2.63325,4.6713 -2.49209,10.41153 -5.73214,14.79329 -2.99626,5.34274 -6.68522,10.61455 -7.95927,16.63835 1.26921,0.85011 0.8438,1.61182 -0.21825,2.40983 -4.51414,4.45127 -6.96883,10.43317 -9.4075,16.16342 -0.82923,1.27754 0.41117,1.12255 0.39724,1.65722 -0.69906,1.30125 -2.60591,1.50262 -2.68102,3.25892 -0.9048,3.44917 -3.77449,5.83969 -5.14516,9.04381 0.76704,0.93365 0.0185,2.27852 0.11914,3.38672 -0.50454,1.04788 -1.89933,1.3557 -2.51098,1.86154 -2.0037,4.49192 -3.77349,9.17512 -5.89145,13.55873 -2.53972,1.80951 -3.68342,4.88219 -5.02705,7.51988 -2.45573,1.41108 -2.71496,4.62248 -4.10815,6.88287 -1.51102,2.20726 -4.42106,3.47117 -6.10494,5.38402 2.2432,-0.0703 4.70165,0.35813 6.85192,-0.21721 2.44392,-1.47559 6.40697,0.8746 7.82977,-2.4707 0.80404,-0.14072 3.34493,0.20375 2.67963,1.73087 2.05001,0.48144 4.49485,0.5004 6.58399,0.0996 0.2967,-0.99469 2.50632,-0.81853 2.81415,-0.44285 -0.47404,1.12491 1.69212,0.47587 2.35673,0.65715 2.92997,-0.12361 5.91415,0.0439 8.81154,-0.14789 -0.33015,-1.89999 -0.72825,-4.09572 -2.70508,-4.84961 -0.79328,-2.61421 0.35341,-5.47336 0.89453,-8.07617 0.14139,-1.67004 2.03204,-1.89739 2.14765,-3.5228 0.97776,-2.56603 0.67203,-5.56554 2.09063,-7.92447 1.56112,-1.26428 2.41799,-3.27338 3.78907,-4.58203 2.35465,-0.61538 4.60429,0.54713 6.88148,0.6545 3.26849,-1.03855 6.82884,-0.93499 10.21813,-0.67598 -0.14525,0.95791 -0.898,2.85549 0.88462,2.02878 1.71341,-0.27348 3.46872,-0.507 4.58022,-1.95066 2.96993,-0.29673 5.95171,1.31882 8.87971,0.12171 1.71991,-0.91547 2.68243,0.96108 4.12615,1.42321 2.17923,4.137 3.54394,8.71734 6.40437,12.50011 1.23792,3.66023 2.93476,7.64681 1.28789,11.47596 -0.14305,1.12898 -1.08525,2.50119 -0.85046,3.46143 3.77263,-0.0557 7.56745,0.11159 11.32617,-0.084 0.55081,-1.49299 2.7749,-0.41436 4.02898,-0.68849 3.56077,-0.29437 7.34524,0.61258 10.71885,-0.67463 1.71849,0.49257 2.63053,2.95259 4.78421,2.33438 3.6058,-0.49339 7.21012,0.54371 10.77655,0.52874 -1.88052,-2.28117 -4.50365,-3.94418 -5.72877,-6.74636 -1.40869,-1.92714 -3.18943,-3.49688 -4.29529,-5.68876 -2.62483,-3.5695 -3.70148,-8.0013 -6.60289,-11.39105 -1.02765,-1.76576 -2.8142,-4.068 -1.7793,-6.11914 1.42914,0.30679 0.73581,-0.23228 0.29215,-1.35144 -1.69593,-3.54314 -3.48602,-7.05736 -6.27929,-9.87346 -1.01892,-0.98243 -1.79988,-2.72444 -2.71012,-3.41963 -0.94995,1.64896 -0.85469,-1.56037 -0.92179,-2.26197 -0.15981,-5.25053 -3.26031,-9.83153 -5.74423,-14.27905 -1.66454,-2.73068 -2.74937,-5.75031 -2.88447,-8.9591 -0.53869,-2.00789 -0.21813,-4.62388 -1.74114,-6.1575 -1.18208,-0.51506 -2.16532,-1.25272 -3.22454,-1.85655 -1.1178,-2.28227 -1.59433,-4.8192 -2.77227,-7.09734 -0.17024,-1.2662 -0.64061,-1.32116 -1.68116,-0.77795 -1.07958,0.85441 -1.12276,-1.66275 -1.45315,-2.3841 0.0282,-0.9568 -1.12685,-2.63219 -0.16984,-3.15027 2.0644,0.38819 1.3491,-1.8623 0.46759,-2.76758 -1.70434,-3.36698 -3.10257,-6.9864 -4.0334,-10.65381 -0.77353,-3.12679 -0.97435,-6.72832 -3.61532,-8.94201 -1.65577,-2.25635 -3.19642,-4.69263 -3.92463,-7.42743 -1.1106,-1.76019 -1.90491,-4.01267 -3.4161,-5.34784 -0.36172,0.0124 -0.72749,-0.0269 -1.08673,0.0234 z m -3.89257,51.60352 c 3.50276,4.584 4.42073,10.36461 6.07812,15.73828 2.32449,1.59256 1.61336,4.81241 2.53188,7.17184 0.39087,2.21613 1.46719,4.8183 1.63218,6.73441 -1.62215,0.0722 -2.72794,2.26991 -4.28906,0.99805 -0.89235,-1.05792 -1.97431,-1.23679 -3.29248,-0.88769 -2.15846,0.23351 -4.29321,0.61958 -6.36572,-0.17286 -2.59074,-0.41362 -5.87412,-0.0139 -8.0611,-0.19483 1.06887,-4.88069 3.31262,-9.49311 4.45172,-14.39306 0.0164,-1.4935 1.76621,-1.28356 1.86839,-2.70249 0.86287,-2.75934 1.55383,-5.618 3.38552,-7.87759 0.78501,-1.40758 1.32012,-3.0772 2.06055,-4.41406 z"
         style="fill:url(#pattern5924);stroke-width:5.29669476;stroke-miterlimit:4;stroke-dasharray:none"
         id="path5898"
         inkscape:connector-curvature="0" />
      <path
         d="m 472.27344,339.125 c -4.10467,1.68049 -8.39299,-0.25541 -12.64204,0.45687 -4.00973,0.31681 -8.04812,0.0198 -12.05132,0.24625 -0.94743,1.49597 -3.11802,1.63564 -3.91406,-0.084 -2.18671,0.25282 -4.73804,2.2978 -6.79102,0.82813 -1.09062,-1.6505 -3.49674,-0.47467 -5.14089,-0.82813 -1.34454,0.0598 -2.74558,-0.11727 -4.05638,0.084 0.32372,2.4216 2.00747,4.23102 3.77993,5.70744 1.47179,1.82479 2.76751,4.02833 2.2982,6.44882 0.42245,0.93927 2.18048,2.88485 0.16406,2.86718 -0.2827,1.631 -0.27671,3.76622 0.25391,5.37696 1.56307,-0.0109 0.51448,2.43781 0.75579,3.51272 0.29619,7.92798 -0.15975,15.86604 0.0762,23.79978 0.2062,1.80479 -0.56067,3.95238 0.30664,5.5371 1.1327,0.42764 2.1733,2.07652 1.94141,3.12305 -1.36516,-0.22458 -3.03475,-0.0145 -2.37853,1.79406 0.22452,7.04452 0.0854,14.22862 0.12507,21.18093 -0.279,0.975 -2.12264,2.69076 -0.48287,3.13634 1.05454,1.27617 0.10232,3.19656 0.54496,4.72593 0.01,2.81672 10e-4,5.70208 -0.2227,8.46548 -2.17583,0.15597 -0.8667,2.90495 -1.12592,4.30314 0.0921,2.95924 0.18605,5.94021 0.0864,8.87289 -0.81326,3.63606 -3.44164,6.34754 -6.26068,8.58176 -1.26934,0.87097 -1.22684,1.66521 0.43277,1.23474 2.7931,-0.007 5.62838,-0.16913 8.39087,0.025 0.13986,-1.7762 2.70033,-1.35518 3.96081,-1.02991 1.29312,0.79651 2.55083,1.2893 4.08778,1.01434 1.842,0.27936 4.0486,-0.40605 5.65138,0.43431 0.62105,1.23936 2.8342,1.28804 2.91722,-0.25663 1.20729,-0.69745 1.99174,0.16525 2.66211,1.04102 3.83113,0.34005 7.79509,-0.043 11.67678,0.0937 0.90014,-0.21248 2.74073,0.42419 3.09666,-0.3125 -1.80467,-3.39309 -6.77291,-4.6918 -7.17489,-8.94837 -0.62667,-4.65393 0.81769,-9.47992 -0.39347,-14.05944 -1.30299,-1.48143 -0.98444,-3.75909 -1.4608,-5.67002 -0.41529,-3.41684 -1.24434,-6.92195 0.0595,-10.25522 0.79968,-2.8587 0.49964,-5.87666 0.43343,-8.80148 -0.53369,-0.96436 -0.92704,-2.13119 -1.79579,-2.80844 -1.18499,-0.70728 -0.63749,-2.81501 -0.68164,-4.05469 0.30018,-1.2889 1.85813,0.71416 1.28983,-1.22827 -0.12384,-5.03754 0.36367,-10.13679 -0.0513,-15.148 -0.62646,-0.71548 -1.78666,-1.34132 -1.28341,-2.63154 -0.34683,-1.91781 2.41146,-1.30318 2.75196,-2.48242 -0.40904,-3.19691 0.35138,-6.5678 -0.30079,-9.74414 -0.99268,-0.43919 -1.28928,-0.85796 -1.07358,-2.07069 0.0481,-4.90162 -0.17017,-9.81025 0.001,-14.70666 1.86394,0.1254 3.62863,0.0439 5.25574,-0.92988 3.73106,-0.846 7.64264,-0.13706 11.44644,-0.29384 5.24469,0.15019 8.2537,5.0095 11.17929,8.67861 1.4882,1.80261 2.33052,4.03144 1.92908,6.36933 0.37086,3.0288 4.26936,4.97095 3.5417,8.31623 -0.84304,2.67858 0.3857,5.57734 -0.6891,8.15909 -2.54918,4.22491 -2.578,9.98013 -6.59089,13.32937 -2.35449,0.93816 -5.06782,0.0126 -7.56256,0.45298 -3.64277,0.16979 -7.34565,0.48406 -10.93353,-0.0311 -1.34427,0.0919 -2.89957,-2.10439 -3.88512,-0.90318 0.31516,3.8622 3.89046,6.11762 5.81056,9.03073 8.46436,2.54639 17.05827,6.20907 26.08572,5.2485 4.74449,-0.97743 9.35693,-3.32972 12.35968,-7.23693 4.72228,-5.6085 7.37477,-12.65041 9.41722,-19.60759 1.2518,-5.06705 1.968,-10.45635 1.04528,-15.62493 -1.12991,-3.58871 -4.29848,-6.81865 -3.256,-10.8395 0.43691,-1.6837 0.0316,-3.34339 -1.45288,-4.33029 -2.4791,-3.1195 -4.86177,-6.57735 -7.41157,-9.48681 -1.23715,-0.0725 -2.48536,-2.49694 -3.35937,-0.63477 -0.31099,1.17644 -2.08317,0.87503 -2.46094,0.36914 1.21154,-0.56072 1.86314,-2.31325 0.42413,-3.01895 -1.58884,-1.59105 -3.77094,-1.89334 -5.92023,-1.6705 -2.2502,0.029 -4.08758,-1.89364 -6.44098,-1.28758 -4.40071,0.12471 -8.63767,-1.63193 -13.05938,-1.24316 -1.35534,0.17571 -1.71789,-1.96488 -3.15466,-0.91859 -0.26017,0.11071 -0.52035,0.22143 -0.78052,0.33214 z"
         style="fill:url(#pattern5866);stroke-width:5.29669476;stroke-miterlimit:4;stroke-dasharray:none"
         id="path5900"
         inkscape:connector-curvature="0" />
      <path
         d="m 547.51172,338.13086 c -2.54996,1.29248 -5.6359,0.57101 -8.45122,0.87888 -1.29277,-0.19721 -2.80182,1.1951 -3.66988,-0.0781 -4.68196,-0.55743 -9.36365,0.40514 -14.04996,-0.0195 -1.52044,-0.44007 -1.43328,0.64883 -0.5347,1.46327 1.70879,1.83436 4.32062,2.8921 5.66474,4.97228 2.44942,1.27973 -0.70895,4.7207 1.22727,6.10712 1.43516,0.3086 0.58042,2.64329 0.79226,3.78741 -0.53465,4.62534 -0.42305,9.30671 0.006,13.9375 1.93204,0.73354 1.08939,3.29477 1.22157,4.96358 -0.004,4.59989 -0.0682,9.22123 -0.19227,13.80009 0.0927,1.68166 2.8035,2.48486 2.33591,4.11076 -1.84069,0.87745 -0.81614,3.3423 -1.2648,4.97973 0.008,2.27581 -0.62184,4.70336 -0.21951,6.88653 1.03588,1.99864 0.24753,4.50314 0.53344,6.70645 0.0191,2.1706 0.31147,4.59555 -1.27243,6.29008 -0.5077,4.97535 0.51358,10.0544 0.0866,15.06747 -0.11562,1.33314 -0.23673,2.5411 0.80273,3.51562 0.81775,2.19376 0.45246,4.65109 0.23828,6.91406 -1.05633,-0.91465 -1.38727,0.2014 -1.0685,1.17051 0.44937,1.29501 -0.53121,1.03417 -1.24009,1.06387 -0.59874,1.79427 0.75199,4.10228 -1.02344,5.59375 -0.47984,2.13939 -1.9547,3.61886 -3.47588,5.06077 -0.48453,0.7086 -1.61362,1.99928 -1.33742,2.59708 4.6683,0.0484 9.31969,-0.71363 13.97346,-0.66371 1.92054,1.39659 4.61127,0.29486 6.82967,0.42897 3.81792,-0.45026 7.61748,-0.25921 11.41779,0.2448 2.37535,0.0929 4.88843,0.12307 7.18613,-0.11713 0.73292,-1.46127 0.0468,-2.89403 -1.35863,-3.56458 -1.11362,-1.07586 -2.33317,-2.10663 -3.20844,-3.24441 -0.7613,-1.78722 0.59423,-4.04902 -0.53254,-5.59726 -1.5292,-0.70039 -0.92279,-3.07731 -1.16988,-4.51288 -0.2451,-2.69776 0.55344,-5.40814 0.46676,-8.05548 -0.71334,-1.27573 -10e-4,-3.25301 -0.17109,-4.79846 -0.10209,-2.00018 0.44163,-4.2751 -0.14494,-6.10364 -0.99508,-0.98002 0.73151,-2.40042 0.16954,-3.68028 0.042,-3.60034 0.066,-7.19468 0,-10.79457 1.67438,-0.20124 3.84049,0.63679 4.9219,-0.97873 3.22815,-0.65968 6.6117,0.72274 9.90666,0.0667 1.76482,0.18261 4.00362,-1.04842 5.46246,0.23621 2.32709,0.32927 5.06839,-0.36273 7.54958,-0.44516 4.48029,-0.76597 9.07386,1.46075 11.79417,4.96274 1.51983,2.72643 1.99232,6.3684 0.0801,9.01368 -0.29412,1.26359 1.72703,-0.73994 1.09784,1.11592 -0.15836,1.13787 0.69439,3.29009 -0.96112,3.4954 -1.02357,4.84444 0.42613,9.92837 -0.70104,14.80141 -0.68348,4.76154 1.0466,10.61581 -2.92132,14.31512 -0.99486,1.16575 -1.94742,2.39439 -2.58858,3.79558 4.06462,0.51225 8.36249,0.80574 12.32422,-0.16797 -0.93094,-1.60405 0.64177,-0.81324 1.62584,-0.98697 1.23938,-0.4265 1.8306,-0.0757 1.33119,1.17447 3.55939,0.24268 7.22749,-1.08863 10.7788,-0.5424 5.1725,0.9854 10.55703,0.77419 15.82472,0.6049 -0.69588,-1.46383 -2.48752,-2.87236 -3.90262,-3.91322 -0.87422,-0.74992 -3.35337,-0.98526 -2.83923,-2.42958 0.22855,-1.50134 -1.4518,-2.94231 -1.47495,-4.60251 -0.0914,-6.80413 0.0458,-13.63237 -0.0684,-20.42578 -0.89442,0.32978 -1.41375,0.44527 -1.20703,-0.96913 -0.20809,-5.46806 0.40819,-10.99351 0.18373,-16.45944 -0.39375,-2.18938 0.35161,-4.54862 -0.26772,-6.65737 -1.606,0.37555 -0.91262,-2.15502 -1.03677,-3.11088 0.25143,-7.80775 0.84397,-15.63986 -0.16719,-23.42091 0.0493,-2.01156 -0.21663,-4.37981 0.37791,-6.17078 1.86283,-0.57849 0.64323,-3.07349 0.99207,-4.51021 0.15121,-4.37858 -0.4353,-8.82581 0.0465,-13.16039 1.87889,-0.43783 0.80859,-2.59824 1.03751,-4.00183 -0.32396,-1.40113 1.8578,-1.55545 1.22852,-2.91406 1.03452,-2.21487 3.36954,-3.53528 4.84961,-5.26093 0.40298,-1.77054 -2.00956,-0.71659 -3.00852,-1.03003 -1.43369,0.14611 -3.33589,-0.43723 -4.48562,0.37885 1.20263,1.6731 -2.15129,0.75419 -3.07522,0.93087 -0.99206,0.27895 -1.44933,-0.45454 -1.874,-1.02262 -3.51972,-0.43629 -7.31079,-0.93844 -10.72852,0.2187 0.29557,1.50528 -1.97871,0.51532 -2.92179,0.84367 -0.93278,0.14337 -2.22566,0.10454 -1.46883,-1.13664 -2.90919,-0.35177 -6.27127,0.31575 -9.35149,-0.0175 -0.76703,0.21748 -2.55028,-0.65005 -2.67781,0.24403 1.58737,3.07574 5.19052,5.40834 4.67431,9.29694 0.12561,2.06467 -0.44283,4.40921 0.27686,6.29681 1.17935,-1.31842 0.9997,0.38323 1.08399,1.33203 0.13848,2.03126 -0.72383,4.40207 0.81055,6.01367 1.02489,3.1051 0.20932,6.47579 0.1875,9.64258 -1.62189,-0.35632 -1.50387,2.20794 -1.72071,3.27865 0.36762,1.91407 0.73362,3.76143 0.43528,5.69328 0.16421,2.4378 0.33599,4.93621 0.11941,7.34838 -3.99785,-0.0848 -7.99604,-0.56203 -11.99024,0 -1.29024,0.051 -0.0888,-1.51154 -1.5664,-1.38476 -1.37288,-0.77176 -2.24614,0.62672 -3.10127,1.2895 -2.60051,0.54608 -5.34134,0.78248 -7.83935,-0.23872 -4.5775,0.48333 -9.21353,0.41166 -13.77551,0.23669 -1.11415,0.41123 -2.33356,-0.12549 -1.80755,-1.44842 0.67489,-1.8632 -1.20685,-3.16289 -0.79473,-5.06587 0.22523,-4.08149 0.21045,-8.15255 0.004,-12.23022 0.0953,-1.0676 1.68726,-0.88124 1.44335,-2.22656 0.6377,-3.89265 -0.42653,-7.74255 0.0156,-11.64062 0.18334,-3.41358 0.34623,-6.88116 1.1875,-10.17969 1.1042,-1.4329 2.24255,-2.78815 3.44915,-4.20381 0.69483,-0.47043 1.85727,-1.56476 0.95219,-2.19464 -3.56403,0.10858 -7.17734,-0.01 -10.72556,-0.008 -0.54328,-1.1233 -2.52809,-0.75794 -3.57031,-0.78125 z"
         style="fill:url(#pattern5866);stroke-width:5.29669476;stroke-miterlimit:4;stroke-dasharray:none"
         id="path5902"
         inkscape:connector-curvature="0" />
      <path
         d="m 634.14258,338.64062 c -0.86687,0.0542 -2.74967,-0.34734 -1.78125,1.10352 2.14161,2.46303 4.49219,5.00202 5.63867,8.14453 -0.59314,1.74941 -0.05,3.46238 1.08398,4.88867 1.36623,1.23987 -1.69112,1.49135 -0.57945,3.04065 0.78224,4.45256 1.12778,8.93076 0.92711,13.44516 0.004,4.23444 0.12849,8.52024 -0.084,12.71927 -0.90659,1.73507 0.54034,3.50324 0.084,5.35306 -0.22111,1.93765 -0.68578,3.88873 -0.25,5.86764 -0.13449,1.02724 0.17908,2.53358 0.2128,3.75309 0.40758,4.18721 1.1803,8.79999 -0.79091,12.81674 -0.85992,1.30476 1.81167,1.80131 1.04891,3.28469 -0.28869,1.89987 0.51267,4.00228 -0.38877,5.87595 -1.55678,0.70112 -0.17951,1.69772 0.53906,2.39258 0.61109,1.27656 -1.14504,2.39695 -0.55836,3.80065 -0.20188,6.79183 -1.07301,13.66882 -1.31273,20.34852 0.11511,4.37245 -2.32362,8.56155 -6.09307,10.75846 -1.42192,0.69942 -1.33854,1.3753 0.30243,1.24814 2.58009,0.30426 5.16669,0.69355 7.71755,0.3875 1.98892,-0.32194 4.39349,-1.54896 6.19809,0.0563 0.94549,0.20184 2.37934,-0.45269 3.37695,0.2832 1.28797,0.081 2.3324,-0.44725 3.5918,-0.20117 1.7148,0.0589 3.64385,0.68775 4.84106,-0.93711 1.35484,-0.56229 3.36184,-0.65202 4.11793,0.72618 4.49594,-0.0345 9.1408,0.32221 13.58593,0.43945 -0.79853,-4.10784 -6.43155,-4.5391 -7.02682,-8.78505 -1.16272,-4.18088 -1.03686,-8.30716 -1.0513,-12.71018 0.15062,-2.2783 -0.0795,-4.49006 -0.64453,-6.67079 -0.45944,-1.65525 1.12443,-3.71889 -0.72903,-4.91594 -0.93957,-1.38184 -0.0848,-3.35695 -0.37449,-4.98358 -0.20016,-3.0238 0.57779,-5.91096 0.33203,-8.9398 -0.0124,-2.14447 0.39168,-4.46733 -1.29057,-6.12431 -1.07362,-1.38868 -1.02357,-3.30366 0.20854,-4.57543 -0.091,-2.33829 0.19095,-4.49819 0,-6.5781 -0.33165,-1.26413 -0.56179,-2.72028 0,-3.94767 -0.32728,-1.55059 -0.53303,-3.29873 -0.0935,-4.97894 -0.67406,-1.29852 0.98331,-1.5764 1.15603,-2.48162 0.045,-4.40845 0.12476,-8.92356 0.39438,-13.31739 0.76051,-1.29968 -0.86483,-1.99244 -0.16997,-3.26595 0.9322,-2.5442 -0.49598,-5.07107 -0.29638,-7.70274 -0.31094,-3.29775 0.20753,-6.64653 1.24037,-9.71975 -0.15775,-1.36848 1.09784,-2.50464 1.88629,-3.51761 1.99875,-1.35353 3.4156,-3.69878 5.02539,-5.48437 -3.60569,-0.98428 -7.5174,0.0559 -11.11914,-0.45899 -0.54709,-1.05629 -2.39941,0.0979 -3.51448,-0.11355 -1.49899,0.22069 -2.97773,0.0893 -4.31636,-0.30246 -1.98244,-0.41299 -2.10575,2.77485 -4.14489,2.03234 -2.10157,0.27297 -4.18987,-0.0878 -5.9481,-1.28429 -1.98168,0.22803 -3.86283,-0.27916 -5.7777,-0.41602 -1.7452,0.13298 -3.42565,-0.62167 -5.17347,-0.35352 z"
         style="fill:url(#pattern5866);stroke-width:5.29669476;stroke-miterlimit:4;stroke-dasharray:none"
         id="path5904"
         inkscape:connector-curvature="0" />
      <path
         d="m 788.4707,338.09375 c -2.16305,1.79247 -4.67641,3.84389 -7.72298,3.16384 -1.72594,-0.32304 -2.17757,2.03423 -3.50191,2.79335 -4.16969,3.31696 -7.90598,7.14356 -11.8752,10.67101 -4.38538,3.17818 -8.23991,7.01542 -12.34954,10.50043 -1.53437,0.71756 0.78805,3.34224 -1.18467,4.03835 -3.82361,2.88724 -6.64523,6.91374 -10.30515,9.93263 -1.5562,0.5041 -3.99521,-0.11773 -4.35991,1.99957 -0.40385,0.66138 -1.17833,2.02358 -1.53853,0.56098 -0.40603,-2.16513 -2.94413,-1.80069 -4.57487,-2.24585 -3.96962,-3.26674 -6.93045,-7.57197 -11.10677,-10.61939 -0.17937,-1.33704 0.98873,-3.26805 -0.91622,-3.73675 -4.08611,-3.70929 -8.22433,-7.4492 -12.63571,-10.79923 -3.54598,-3.57685 -7.32676,-6.88326 -11.16196,-10.1356 -1.34964,-0.88055 -1.78969,-3.22753 -3.72166,-2.61943 -3.1831,0.70026 -5.43918,-1.96003 -7.86914,-3.43555 -0.36536,2.08126 -0.0898,4.87228 -0.35199,7.22586 -0.1248,2.70579 -0.81575,5.5987 0.96803,7.92913 0.60587,2.09668 -0.39977,4.44746 -0.99299,6.50712 -0.4963,3.60218 -0.10848,7.42017 -0.33728,11.10446 -0.19175,5.99319 -0.2551,12.03485 -0.71163,17.98695 -0.40077,1.65489 -0.67578,3.39257 0.6081,4.75154 1.80608,2.66817 0.44007,5.96141 0.65178,8.9437 -0.17566,2.26631 -0.003,4.70453 -0.38661,6.86806 -2.28773,1.56062 -0.54753,4.57147 -1.31747,6.7832 -0.37937,1.30089 0.15643,2.59911 1.54389,2.90193 1.28807,2.99589 1.11021,6.31144 0.35758,9.40707 0.0148,2.14762 -0.68257,4.39002 -0.70323,6.4174 1.55212,1.42571 0.34579,3.7468 0.74611,5.54291 0.31003,1.39976 -1.20167,2.32886 -0.4903,3.79864 0.0187,4.57724 -1.03563,9.66719 -4.95162,12.51602 -1.51644,0.93625 -0.80473,1.50808 0.68458,1.19923 2.4422,0.0521 4.80248,-0.41843 7.09712,-1.14103 1.05679,0.76909 2.20237,0.85967 3.54211,0.70469 6.25067,-0.0827 12.08715,0.23483 18.21179,0.64687 -0.69978,-3.27293 -5.07112,-5.41679 -4.52456,-9.2261 -0.15388,-4.31842 0.2027,-8.70866 -0.27253,-12.98186 -0.65369,-1.08769 -0.17766,-2.09394 0.44748,-2.97485 -0.62784,-10.51588 0.62706,-21.07119 -0.30757,-31.58445 -0.0239,-4.20695 -1.12018,-8.49161 0.14156,-12.61555 1.71603,0.68673 2.33584,3.69954 4.49609,3.24804 1.12735,2.11111 3.17777,3.50552 4.33592,5.60545 0.93166,1.29883 2.18527,1.95961 3.72072,2.15823 1.68471,1.02034 2.25785,3.16874 3.96296,4.26791 1.72273,1.57407 3.33448,3.31525 4.46673,5.37076 1.50012,-0.33842 3.19296,-1.88374 4.38742,-0.11526 1.88938,0.87511 -0.0236,3.3831 1.87469,4.21885 2.00297,1.12395 2.82867,3.6381 4.98008,4.47258 1.43733,-2.29075 3.44415,-4.21102 5.73042,-5.63117 1.4121,-1.36987 2.26864,-3.5659 4.17778,-4.36102 1.24211,0.25448 3.10332,1.99755 3.61741,0.0344 1.79698,-3.1372 5.18861,-5.0202 7.0447,-8.14178 1.23771,-1.04045 3.10049,-0.42153 3.91602,-2.07617 1.42329,-1.6214 2.37864,-3.47321 4.03997,-4.89703 0.45903,-1.16382 1.44627,-0.98899 2.27619,-1.51206 0.95782,-0.85705 2.06163,-2.77447 3.13285,-2.79843 1.10566,4.98593 -0.13618,10.09293 -0.13632,15.13647 -0.66004,9.68015 0.57395,19.39014 -0.0764,29.0691 1.59517,1.50665 -0.27468,3.50921 0.24269,5.34094 -0.13365,4.16233 0.19914,8.39772 -0.27026,12.51363 -0.81003,2.72663 -3.9328,4.40912 -4.3025,7.20988 5.94796,-0.64513 11.49092,-0.66989 17.46725,-0.71984 1.44728,0.007 3.00632,0.33865 4.11565,-0.6859 2.2382,0.52357 4.52497,1.17134 6.904,1.05037 0.8166,-0.0101 2.73796,0.33371 1.40763,-0.81065 -2.67643,-1.91298 -4.40046,-4.79409 -4.89632,-8.0412 -0.60162,-2.23136 -0.2038,-4.65962 -0.55035,-6.83788 -0.98681,-1.51515 -0.13944,-3.47035 -0.46544,-5.1873 -0.49919,-1.48425 1.57317,-2.11182 0.64854,-3.58539 -0.46976,-3.61082 -1.13692,-7.24537 -1.11143,-10.8951 0.52543,-1.22033 0.15863,-3.12709 1.43945,-3.8125 2.21721,-0.58546 0.46509,-3.40672 0.79719,-4.95397 0.0798,-1.68118 0.36492,-3.52291 -1.19172,-4.64955 -0.12434,-4.54673 -0.56331,-9.16192 -0.53477,-13.66351 0.80358,-1.98836 2.48575,-3.80483 1.5862,-6.08221 -0.64086,-8.92924 -0.84058,-17.94874 -0.95864,-26.92495 0.38027,-2.59126 -1.24218,-4.79185 -1.34467,-7.37099 -0.65549,-2.2157 2.02183,-3.85353 1.33586,-6.1575 -0.20057,-3.60631 -0.37208,-7.21689 -0.33203,-10.83014 -0.29303,-0.0687 -0.50938,0.1661 -0.76172,0.26563 z"
         style="fill:url(#pattern5866);stroke-width:5.29669476;stroke-miterlimit:4;stroke-dasharray:none"
         id="path5906"
         inkscape:connector-curvature="0" />
    </g>
  </g>
</svg>
